<svg width="21" height="24" viewBox="0 0 21 24" fill="none" xmlns="http://www.w3.org/2000/svg">
<path d="M17.5 16.4267C16.6133 16.4267 15.82 16.7767 15.2133 17.325L6.895 12.4833C6.95333 12.215 7 11.9467 7 11.6667C7 11.3867 6.95333 11.1183 6.895 10.85L15.12 6.055C15.75 6.63833 16.5783 7 17.5 7C19.4367 7 21 5.43667 21 3.5C21 1.56333 19.4367 0 17.5 0C15.5633 0 14 1.56333 14 3.5C14 3.78 14.0467 4.04833 14.105 4.31667L5.88 9.11167C5.25 8.52833 4.42167 8.16667 3.5 8.16667C1.56333 8.16667 0 9.73 0 11.6667C0 13.6033 1.56333 15.1667 3.5 15.1667C4.42167 15.1667 5.25 14.805 5.88 14.2217L14.1867 19.075C14.1283 19.32 14.0933 19.5767 14.0933 19.8333C14.0933 21.7117 15.6217 23.24 17.5 23.24C19.3783 23.24 20.9067 21.7117 20.9067 19.8333C20.9067 17.955 19.3783 16.4267 17.5 16.4267Z" fill="#757575"/>
</svg>
